<svg xmlns="http://www.w3.org/2000/svg" viewBox="0 0 160 160" width="160" height="160">
	<defs>
		<g id="icon-home" fill="none" stroke-linecap="round" stroke-linejoin="round" stroke-width="2.4">
			<path d="M9 21 20 11l11 10"/>
			<path d="M12 20v10h16V20"/>
			<path d="M18 30v-7h4v7"/>
		</g>
		<g id="icon-services" fill="none" stroke-linecap="round" stroke-linejoin="round" stroke-width="2.4">
			<path d="M14.5 11.5a4.3 4.3 0 1 1 6.1 6.1l-5.3 5.3 2.7 2.7-3.1 3.1-2.7-2.7-3.7 3.7a4.1 4.1 0 0 1-5.8-5.8l3.7-3.7-2.7-2.7 3.1-3.1 2.7 2.7Z"/>
			<path d="m11.2 20.8 3.8 3.8"/>
		</g>
		<g id="icon-plane" fill="none" stroke-linecap="round" stroke-linejoin="round" stroke-width="2.4">
			<path d="M10 23.5 22.5 20 33 10.5l3 3-9.5 10.5L23 36.5l-4.2-4.3-5.8 3 1.4-7.1L10 23.7Z"/>
			<path d="m22.5 20 4 4"/>
		</g>
		<g id="icon-doc" fill="none" stroke-linecap="round" stroke-linejoin="round" stroke-width="2.4">
			<path d="M11 10h13l5 5v15H11Z"/>
			<path d="M24 10v5h5"/>
			<path d="M15 22h10"/>
			<path d="M15 27h10"/>
		</g>
	</defs>
	<g stroke="#ffffff">
		<use href="#icon-home" x="0" y="0"/>
		<use href="#icon-services" x="40" y="0"/>
		<use href="#icon-plane" x="80" y="0"/>
		<use href="#icon-doc" x="120" y="0"/>
	</g>
	<g stroke="#ffd166">
		<use href="#icon-home" x="0" y="40"/>
		<use href="#icon-services" x="40" y="40"/>
		<use href="#icon-plane" x="80" y="40"/>
		<use href="#icon-doc" x="120" y="40"/>
	</g>
	<g stroke="#1d2a38">
		<use href="#icon-home" x="0" y="80"/>
		<use href="#icon-services" x="40" y="80"/>
		<use href="#icon-plane" x="80" y="80"/>
		<use href="#icon-doc" x="120" y="80"/>
	</g>
	<g stroke="#0f3057">
		<use href="#icon-home" x="0" y="120"/>
		<use href="#icon-services" x="40" y="120"/>
		<use href="#icon-plane" x="80" y="120"/>
		<use href="#icon-doc" x="120" y="120"/>
	</g>
</svg>
